<svg width="30" height="30" viewBox="0 0 30 30" fill="none" xmlns="http://www.w3.org/2000/svg">
<path d="M21.5858 1L29 8.41421V21.5858L21.5858 29H8.41421L1 21.5858V8.34808L8.41169 1H21.5858Z" fill="#FADA5A" stroke="#5960FA" stroke-width="2"/>
<path d="M6.23047 17.312V15.2H8.53447V17.44C8.53447 17.76 8.69447 17.92 9.01447 17.92H11.1905C11.5105 17.92 11.6705 17.76 11.6705 17.44V11.04H8.66247V8.95996H13.9745V17.312C13.9745 19.104 13.0785 20 11.2865 20H8.91847C7.12647 20 6.23047 19.104 6.23047 17.312Z" fill="#5960FA"/>
<path d="M16.0273 19.168V17.92H20.9873C21.3073 17.92 21.4673 17.76 21.4673 17.44V16.288C21.4673 15.9786 21.334 15.8026 21.0673 15.76L17.9473 15.12C16.6673 14.864 16.0273 14.0053 16.0273 12.544V11.648C16.0273 9.85596 16.9233 8.95996 18.7153 8.95996H22.3793L23.4513 9.79196V11.04H18.8113C18.4913 11.04 18.3313 11.2 18.3313 11.52V12.56C18.3313 12.8586 18.4647 13.0346 18.7313 13.088L21.8513 13.712C23.1313 13.968 23.7713 14.8266 23.7713 16.288V17.312C23.7713 19.104 22.8753 20 21.0833 20H17.0993L16.0273 19.168Z" fill="#5960FA"/>
</svg>
